# xmcd CD database file
#
# Track frame offsets:
#	150
#	12891
#	32177
#	54584
#	69096
#	87933
#	109575
#	122645
#	149084
#	168185
#	186583
#	203220
#
# Disc length: 2888 seconds
#
# Revision: 1
# Processed by: cddbd v1.4PL0 Copyright (c) Steve Scherf et al.
# Submitted via: Feurio! 1.65 - http://www.feurio.com
#
DISCID=a60b460c
DTITLE=June Star - Songs from an Engineer's Daughter
DYEAR=2000
DGENRE=Country
TTITLE0=Imogene
TTITLE1=All the Flowers
TTITLE2=Mountain Top
TTITLE3=8 Dollars
TTITLE4=Tonight
TTITLE5=Faithless
TTITLE6=Find My Way Home
TTITLE7=Texas Summer Nights
TTITLE8=Brighter Stars Shine
TTITLE9=Tornado
TTITLE10=North
TTITLE11=untitled
EXTD=
EXTT0=
EXTT1=
EXTT2=
EXTT3=
EXTT4=
EXTT5=
EXTT6=
EXTT7=
EXTT8=
EXTT9=
EXTT10=
EXTT11=
PLAYORDER=
